{
  "accessors": [
    {
      "bufferView": 2,
      "componentType": 5126,
      "count": 60,
      "max": [
        0.037410005927085876,
        0.037412647157907486,
        0.051739029586315155
      ],
      "min": [
        -0.03741266578435898,
        -0.037412647157907486,
        0.00012170890113338828
      ],
      "type": "VEC3"
    },
    {
      "bufferView": 2,
      "byteOffset": 720,
      "componentType": 5126,
      "count": 60,
      "max": [
        0.9999280571937561,
        0.9999279379844666,
        1.0
      ],
      "min": [
        -0.9999279379844666,
        -0.9999279379844666,
        -0.8476744294166565
      ],
      "type": "VEC3"
    },
    {
      "bufferView": 3,
      "componentType": 5126,
      "count": 60,
      "max": [
        0.47286146879196167,
        0.9996445775032043,
        0.9999280571937561,
        1.0
      ],
      "min": [
        -0.8505637645721436,
        -0.9996445775032043,
        -0.9999280571937561,
        1.0
      ],
      "type": "VEC4"
    },
    {
      "bufferView": 1,
      "componentType": 5126,
      "count": 60,
      "max": [
        0.9220322370529175,
        0.7605257630348206
      ],
      "min": [
        0.245015949010849,
        0.00390625
      ],
      "type": "VEC2"
    },
    {
      "bufferView": 0,
      "componentType": 5125,
      "count": 162,
      "type": "SCALAR"
    },
    {
      "bufferView": 2,
      "byteOffset": 1440,
      "componentType": 5126,
      "count": 417,
      "max": [
        0.015689600259065628,
        0.015689600259065628,
        0.06635128706693649
      ],
      "min": [
        -0.017502300441265106,
        -0.015689600259065628,
        0.05189608410000801
      ],
      "type": "VEC3"
    },
    {
      "bufferView": 2,
      "byteOffset": 6444,
      "componentType": 5126,
      "count": 417,
      "max": [
        0.9999997019767761,
        0.9999997019767761,
        1.0
      ],
      "min": [
        -0.9999988675117493,
        -0.9999997019767761,
        -0.9999995827674866
      ],
      "type": "VEC3"
    },
    {
      "bufferView": 3,
      "byteOffset": 960,
      "componentType": 5126,
      "count": 417,
      "max": [
        0.5585956573486328,
        0.9810624718666077,
        1.0,
        1.0
      ],
      "min": [
        -0.9808397889137268,
        -0.9807856678962708,
        -0.9983989596366882,
        1.0
      ],
      "type": "VEC4"
    },
    {
      "bufferView": 1,
      "byteOffset": 480,
      "componentType": 5126,
      "count": 417,
      "max": [
        0.99609375,
        0.9929497838020325
      ],
      "min": [
        0.00390625,
        0.00390625
      ],
      "type": "VEC2"
    },
    {
      "bufferView": 0,
      "byteOffset": 648,
      "componentType": 5125,
      "count": 1230,
      "type": "SCALAR"
    },
    {
      "bufferView": 2,
      "byteOffset": 11448,
      "componentType": 5126,
      "count": 271,
      "max": [
        0.03183378651738167,
        0.015727471560239792,
        0.006962068844586611
      ],
      "min": [
        -0.0012201531790196896,
        -0.015716711059212685,
        -0.0009626571554690599
      ],
      "type": "VEC3"
    },
    {
      "bufferView": 2,
      "byteOffset": 14700,
      "componentType": 5126,
      "count": 271,
      "max": [
        1.0,
        1.0,
        1.0
      ],
      "min": [
        -0.999994158744812,
        -1.0,
        -1.0
      ],
      "type": "VEC3"
    },
    {
      "bufferView": 3,
      "byteOffset": 7632,
      "componentType": 5126,
      "count": 271,
      "max": [
        0.9789735078811646,
        0.9996978640556335,
        1.0,
        1.0
      ],
      "min": [
        -0.9821975827217102,
        -0.9996979236602783,
        -0.9999997615814209,
        1.0
      ],
      "type": "VEC4"
    },
    {
      "bufferView": 1,
      "byteOffset": 3816,
      "componentType": 5126,
      "count": 271,
      "max": [
        0.980259120464325,
        0.9031991958618164
      ],
      "min": [
        0.18651139736175537,
        0.00390625
      ],
      "type": "VEC2"
    },
    {
      "bufferView": 0,
      "byteOffset": 5568,
      "componentType": 5125,
      "count": 768,
      "type": "SCALAR"
    },
    {
      "bufferView": 2,
      "byteOffset": 17952,
      "componentType": 5126,
      "count": 78,
      "max": [
        0.0355510488152504,
        0.03555355966091156,
        0.051739029586315155
      ],
      "min": [
        -0.03555358201265335,
        -0.03555355966091156,
        0.0014027301222085953
      ],
      "type": "VEC3"
    },
    {
      "bufferView": 2,
      "byteOffset": 18888,
      "componentType": 5126,
      "count": 78,
      "max": [
        0.9994180798530579,
        0.9994181394577026,
        0.9759095907211304
      ],
      "min": [
        -0.999418318271637,
        -0.9994181990623474,
        -0.8755596876144409
      ],
      "type": "VEC3"
    },
    {
      "bufferView": 3,
      "byteOffset": 11968,
      "componentType": 5126,
      "count": 78,
      "max": [
        0.9650166630744934,
        0.9997561573982239,
        0.9994181394577026,
        1.0
      ],
      "min": [
        -0.975909411907196,
        -0.9997562170028687,
        -0.9994181394577026,
        1.0
      ],
      "type": "VEC4"
    },
    {
      "bufferView": 1,
      "byteOffset": 5984,
      "componentType": 5126,
      "count": 78,
      "max": [
        0.9398021101951599,
        0.9685201644897461
      ],
      "min": [
        0.055319346487522125,
        0.00390625
      ],
      "type": "VEC2"
    },
    {
      "bufferView": 0,
      "byteOffset": 8640,
      "componentType": 5125,
      "count": 210,
      "type": "SCALAR"
    },
    {
      "bufferView": 2,
      "byteOffset": 19824,
      "componentType": 5126,
      "count": 50,
      "max": [
        0.09571142494678497,
        0.025342756882309914,
        0.002002198016270995
      ],
      "min": [
        -0.09146688133478165,
        -0.024944571778178215,
        -0.001466355170123279
      ],
      "type": "VEC3"
    },
    {
      "bufferView": 2,
      "byteOffset": 20424,
      "componentType": 5126,
      "count": 50,
      "max": [
        0.0351044237613678,
        0.12540015578269958,
        0.9999963641166687
      ],
      "min": [
        -0.034601908177137375,
        -0.035111092031002045,
        0.9914849996566772
      ],
      "type": "VEC3"
    },
    {
      "bufferView": 3,
      "byteOffset": 13216,
      "componentType": 5126,
      "count": 50,
      "max": [
        0.05702703446149826,
        0.9985464215278625,
        0.03566658869385719,
        1.0
      ],
      "min": [
        0.05036522448062897,
        0.9904918074607849,
        -0.1271355301141739,
        1.0
      ],
      "type": "VEC4"
    },
    {
      "bufferView": 1,
      "byteOffset": 6608,
      "componentType": 5126,
      "count": 50,
      "max": [
        0.2442476600408554,
        0.7214553952217102
      ],
      "min": [
        0.051773618906736374,
        0.00390625
      ],
      "type": "VEC2"
    },
    {
      "bufferView": 0,
      "byteOffset": 9480,
      "componentType": 5125,
      "count": 216,
      "type": "SCALAR"
    },
    {
      "bufferView": 2,
      "byteOffset": 21024,
      "componentType": 5126,
      "count": 122,
      "max": [
        0.12354019284248352,
        0.004618961829692125,
        0.0019023447530344129
      ],
      "min": [
        -0.10446541756391525,
        -0.007131560239940882,
        -0.0019025626825168729
      ],
      "type": "VEC3"
    },
    {
      "bufferView": 2,
      "byteOffset": 22488,
      "componentType": 5126,
      "count": 122,
      "max": [
        0.9897229075431824,
        0.8724370002746582,
        0.999993622303009
      ],
      "min": [
        -0.9777071475982666,
        -0.8705088496208191,
        -0.999992847442627
      ],
      "type": "VEC3"
    },
    {
      "bufferView": 3,
      "byteOffset": 14016,
      "componentType": 5126,
      "count": 122,
      "max": [
        0.6012867093086243,
        0.9999759793281555,
        0.8723373413085938,
        1.0
      ],
      "min": [
        -0.35772404074668884,
        -0.9999937415122986,
        -0.9097594618797302,
        1.0
      ],
      "type": "VEC4"
    },
    {
      "bufferView": 1,
      "byteOffset": 7008,
      "componentType": 5126,
      "count": 122,
      "max": [
        0.04783017933368683,
        0.8838300108909607
      ],
      "min": [
        0.00390625,
        0.00390625
      ],
      "type": "VEC2"
    },
    {
      "bufferView": 0,
      "byteOffset": 10344,
      "componentType": 5125,
      "count": 612,
      "type": "SCALAR"
    }
  ],
  "asset": {
    "extras": {
      "author": "Daxics (https://sketchfab.com/Daxics)",
      "license": "CC-BY-4.0 (http://creativecommons.org/licenses/by/4.0/)",
      "source": "https://sketchfab.com/3d-models/inkwell-4a4cc45f698a46678af44b4ddc45e3e9",
      "title": "Inkwell"
    },
    "generator": "Sketchfab-16.7.0",
    "version": "2.0"
  },
  "bufferViews": [
    {
      "buffer": 0,
      "byteLength": 12792,
      "name": "floatBufferViews",
      "target": 34963
    },
    {
      "buffer": 0,
      "byteLength": 7984,
      "byteOffset": 12792,
      "byteStride": 8,
      "name": "floatBufferViews",
      "target": 34962
    },
    {
      "buffer": 0,
      "byteLength": 23952,
      "byteOffset": 20776,
      "byteStride": 12,
      "name": "floatBufferViews",
      "target": 34962
    },
    {
      "buffer": 0,
      "byteLength": 15968,
      "byteOffset": 44728,
      "byteStride": 16,
      "name": "floatBufferViews",
      "target": 34962
    }
  ],
  "buffers": [
    {
      "byteLength": 60696,
      "uri": "scene.bin"
    }
  ],
  "images": [
    {
      "uri": "textures/Inkwell_baseColor.png"
    },
    {
      "uri": "textures/Inkwell_metallicRoughness.png"
    },
    {
      "uri": "textures/Inkwell_normal.png"
    }
  ],
  "materials": [
    {
      "alphaMode": "BLEND",
      "doubleSided": true,
      "name": "Inkwell",
      "normalTexture": {
        "index": 2
      },
      "occlusionTexture": {
        "index": 1
      },
      "pbrMetallicRoughness": {
        "baseColorTexture": {
          "index": 0
        },
        "metallicRoughnessTexture": {
          "index": 1
        }
      }
    }
  ],
  "meshes": [
    {
      "name": "inkwell_botom_low_Inkwell_0",
      "primitives": [
        {
          "attributes": {
            "NORMAL": 1,
            "POSITION": 0,
            "TANGENT": 2,
            "TEXCOORD_0": 3
          },
          "indices": 4,
          "material": 0,
          "mode": 4
        }
      ]
    },
    {
      "name": "inkwell_mid_low_Inkwell_0",
      "primitives": [
        {
          "attributes": {
            "NORMAL": 6,
            "POSITION": 5,
            "TANGENT": 7,
            "TEXCOORD_0": 8
          },
          "indices": 9,
          "material": 0,
          "mode": 4
        }
      ]
    },
    {
      "name": "inkwell_top_low_Inkwell_0",
      "primitives": [
        {
          "attributes": {
            "NORMAL": 11,
            "POSITION": 10,
            "TANGENT": 12,
            "TEXCOORD_0": 13
          },
          "indices": 14,
          "material": 0,
          "mode": 4
        }
      ]
    },
    {
      "name": "inkwell_inside_low_Inkwell_0",
      "primitives": [
        {
          "attributes": {
            "NORMAL": 16,
            "POSITION": 15,
            "TANGENT": 17,
            "TEXCOORD_0": 18
          },
          "indices": 19,
          "material": 0,
          "mode": 4
        }
      ]
    },
    {
      "name": "operenie_low_Inkwell_0",
      "primitives": [
        {
          "attributes": {
            "NORMAL": 21,
            "POSITION": 20,
            "TANGENT": 22,
            "TEXCOORD_0": 23
          },
          "indices": 24,
          "material": 0,
          "mode": 4
        }
      ]
    },
    {
      "name": "sterzen_low_Inkwell_0",
      "primitives": [
        {
          "attributes": {
            "NORMAL": 26,
            "POSITION": 25,
            "TANGENT": 27,
            "TEXCOORD_0": 28
          },
          "indices": 29,
          "material": 0,
          "mode": 4
        }
      ]
    }
  ],
  "nodes": [
    {
      "children": [
        1
      ],
      "matrix": [
        1.0,
        0.0,
        0.0,
        0.0,
        0.0,
        2.220446049250313e-16,
        -1.0,
        0.0,
        0.0,
        1.0,
        2.220446049250313e-16,
        0.0,
        0.0,
        0.0,
        0.0,
        1.0
      ],
      "name": "Sketchfab_model"
    },
    {
      "children": [
        2
      ],
      "matrix": [
        0.009999999776482582,
        0.0,
        0.0,
        0.0,
        0.0,
        0.0,
        0.009999999776482582,
        0.0,
        0.0,
        -0.009999999776482582,
        0.0,
        0.0,
        0.0,
        0.0,
        0.0,
        1.0
      ],
      "name": "a2f06557af3c4818a8ac7b490ce0b05d.fbx"
    },
    {
      "children": [
        3,
        5,
        7,
        9,
        11,
        13
      ],
      "name": "RootNode"
    },
    {
      "children": [
        4
      ],
      "matrix": [
        100.0,
        0.0,
        0.0,
        0.0,
        0.0,
        -2.8212996916465727e-05,
        -99.99999999999602,
        0.0,
        0.0,
        99.99999999999602,
        -2.8212996916465727e-05,
        0.0,
        0.0,
        0.0005684792995452881,
        0.0,
        1.0
      ],
      "name": "inkwell_botom_low"
    },
    {
      "mesh": 0,
      "name": "inkwell_botom_low_Inkwell_0"
    },
    {
      "children": [
        6
      ],
      "matrix": [
        100.0,
        0.0,
        0.0,
        0.0,
        0.0,
        -2.8212996916465727e-05,
        -99.99999999999602,
        0.0,
        0.0,
        99.99999999999602,
        -2.8212996916465727e-05,
        0.0,
        0.0,
        -0.017072312533855438,
        2.5587512109126465e-09,
        1.0
      ],
      "name": "inkwell_mid_low"
    },
    {
      "mesh": 1,
      "name": "inkwell_mid_low_Inkwell_0"
    },
    {
      "children": [
        8
      ],
      "matrix": [
        -93.3580432811215,
        35.836793309672174,
        -9.2884235441959e-06,
        0.0,
        5.96588784484986e-06,
        -1.0377009340700738e-05,
        -99.99999999999929,
        0.0,
        -35.83679330967288,
        -93.35804328112135,
        7.549789959870878e-06,
        0.0,
        -1.6161895990371704,
        6.304612636566162,
        -3.1368672104292727e-09,
        1.0
      ],
      "name": "inkwell_top_low"
    },
    {
      "mesh": 2,
      "name": "inkwell_top_low_Inkwell_0"
    },
    {
      "children": [
        10
      ],
      "matrix": [
        100.0,
        0.0,
        0.0,
        0.0,
        0.0,
        -2.8212996916465727e-05,
        -99.99999999999602,
        0.0,
        0.0,
        99.99999999999602,
        -2.8212996916465727e-05,
        0.0,
        0.0,
        0.0005684792995452881,
        0.0,
        1.0
      ],
      "name": "inkwell_inside_low"
    },
    {
      "mesh": 3,
      "name": "inkwell_inside_low_Inkwell_0"
    },
    {
      "children": [
        12
      ],
      "matrix": [
        44.86937453139399,
        68.46503935188105,
        -57.439338573027385,
        0.0,
        -42.147110521731655,
        72.88715645377027,
        53.95444349517197,
        0.0,
        78.80583755519946,
        1.8314745275915811e-07,
        61.56005171556889,
        0.0,
        5.546384811401367,
        14.270612716674805,
        -7.348472595214844,
        1.0
      ],
      "name": "operenie_low"
    },
    {
      "mesh": 4,
      "name": "operenie_low_Inkwell_0"
    },
    {
      "children": [
        14
      ],
      "matrix": [
        44.86937453139399,
        68.46503935188105,
        -57.439338573027385,
        0.0,
        -42.147110521731655,
        72.88715645377027,
        53.95444349517197,
        0.0,
        78.80583755519946,
        1.8314745275915811e-07,
        61.56005171556889,
        0.0,
        2.9893109798431396,
        10.503628730773926,
        -4.084400177001953,
        1.0
      ],
      "name": "sterzen_low"
    },
    {
      "mesh": 5,
      "name": "sterzen_low_Inkwell_0"
    }
  ],
  "samplers": [
    {
      "magFilter": 9729,
      "minFilter": 9987,
      "wrapS": 10497,
      "wrapT": 10497
    }
  ],
  "scene": 0,
  "scenes": [
    {
      "name": "Sketchfab_Scene",
      "nodes": [
        0
      ]
    }
  ],
  "textures": [
    {
      "sampler": 0,
      "source": 0
    },
    {
      "sampler": 0,
      "source": 1
    },
    {
      "sampler": 0,
      "source": 2
    }
  ]
}
