{
    "asset": {
        "version": "2.0",
        "generator": "Open Asset Import Library (assimp v5.4.0)"
    },
    "extensionsUsed": [
        "KHR_materials_volume",
        "FB_ngon_encoding"
    ],
    "accessors": [
        {
            "bufferView": 0,
            "byteOffset": 0,
            "componentType": 5126,
            "count": 228389,
            "type": "VEC3",
            "max": [
                0.257949560880661,
                0.4999995231628418,
                0.24086080491542816
            ],
            "min": [
                -0.2579508125782013,
                -0.5,
                -0.2408578246831894
            ]
        },
        {
            "bufferView": 1,
            "byteOffset": 0,
            "componentType": 5126,
            "count": 228389,
            "type": "VEC3",
            "max": [
                1.0,
                1.0,
                1.0
            ],
            "min": [
                -1.0,
                -1.0,
                -1.0
            ]
        },
        {
            "bufferView": 2,
            "byteOffset": 0,
            "componentType": 5126,
            "count": 228389,
            "type": "VEC2",
            "max": [
                0.9958378672599792,
                0.9998168349266052
            ],
            "min": [
                0.00021726731210947037,
                0.00021016597747802734
            ]
        },
        {
            "bufferView": 3,
            "byteOffset": 0,
            "componentType": 5125,
            "count": 1295820,
            "type": "SCALAR",
            "max": [
                228388
            ],
            "min": [
                0
            ]
        }
    ],
    "buffers": [
        {
            "byteLength": 12491728,
            "uri": "avatar_hiking_0.bin"
        }
    ],
    "bufferViews": [
        {
            "buffer": 0,
            "byteOffset": 0,
            "byteLength": 2740668,
            "target": 34962
        },
        {
            "buffer": 0,
            "byteOffset": 2740668,
            "byteLength": 2740668,
            "target": 34962
        },
        {
            "buffer": 0,
            "byteOffset": 5481336,
            "byteLength": 1827112,
            "target": 34962
        },
        {
            "buffer": 0,
            "byteOffset": 7308448,
            "byteLength": 5183280,
            "target": 34963
        }
    ],
    "images": [
        {
            "uri": "textures/image_1.png"
        },
        {
            "uri": "textures/image_0.png"
        },
        {
            "uri": "textures/image_2.png"
        }
    ],
    "materials": [
        {
            "name": "tripo_material_338807e5-5c70-4d9c-9cc3-477f8894c021",
            "pbrMetallicRoughness": {
                "baseColorTexture": {
                    "index": 0
                },
                "metallicRoughnessTexture": {
                    "index": 1
                },
                "metallicFactor": 0.800000011920929
            },
            "normalTexture": {
                "index": 2
            }
        }
    ],
    "meshes": [
        {
            "name": "meshes[0]",
            "primitives": [
                {
                    "mode": 4,
                    "material": 0,
                    "indices": 3,
                    "attributes": {
                        "POSITION": 0,
                        "NORMAL": 1,
                        "TEXCOORD_0": 2
                    }
                }
            ]
        }
    ],
    "nodes": [
        {
            "name": "avatar_hiking",
            "children": [
                1
            ]
        },
        {
            "name": "tripo_node_338807e5-5c70-4d9c-9cc3-477f8894c021",
            "mesh": 0,
            "extras": {
                "name": "tripo_node_338807e5-5c70-4d9c-9cc3-477f8894c021"
            }
        }
    ],
    "samplers": [
        {
            "magFilter": 9729,
            "minFilter": 9987
        },
        {
            "magFilter": 9729,
            "minFilter": 9987
        },
        {
            "magFilter": 9729,
            "minFilter": 9987
        }
    ],
    "scenes": [
        {
            "nodes": [
                0
            ]
        }
    ],
    "textures": [
        {
            "source": 0,
            "sampler": 0
        },
        {
            "source": 1,
            "sampler": 1
        },
        {
            "source": 2,
            "sampler": 2
        }
    ],
    "scene": 0
}