{
  "accessors": [
    {
      "bufferView": 2,
      "componentType": 5126,
      "count": 30646,
      "max": [
        1.749679446220398,
        1.2891520261764526,
        1.1443910598754883
      ],
      "min": [
        -1.2688478231430054,
        -1.0491708517074585,
        -1.1444487571716309
      ],
      "type": "VEC3"
    },
    {
      "bufferView": 2,
      "byteOffset": 367752,
      "componentType": 5126,
      "count": 30646,
      "max": [
        0.9998639822006226,
        0.9999998807907104,
        0.9999958276748657
      ],
      "min": [
        -0.9998571872711182,
        -0.9998855590820313,
        -0.9999935626983643
      ],
      "type": "VEC3"
    },
    {
      "bufferView": 0,
      "componentType": 5125,
      "count": 183876,
      "type": "SCALAR"
    },
    {
      "bufferView": 2,
      "byteOffset": 735504,
      "componentType": 5126,
      "count": 2016,
      "max": [
        -0.8509246110916138,
        0.8728121519088745,
        0.8845246434211731
      ],
      "min": [
        -1.2688478231430054,
        -0.3671877980232239,
        -0.828836977481842
      ],
      "type": "VEC3"
    },
    {
      "bufferView": 2,
      "byteOffset": 759696,
      "componentType": 5126,
      "count": 2016,
      "max": [
        -0.6441203355789185,
        -0.0,
        0.764924168586731
      ],
      "min": [
        -0.9998571872711182,
        -0.0,
        -0.7157527208328247
      ],
      "type": "VEC3"
    },
    {
      "bufferView": 1,
      "componentType": 5126,
      "count": 2016,
      "max": [
        0.23577453196048737,
        0.6715192198753357
      ],
      "min": [
        0.09714662283658981,
        0.5366597175598145
      ],
      "type": "VEC2"
    },
    {
      "bufferView": 0,
      "byteOffset": 735504,
      "componentType": 5125,
      "count": 11532,
      "type": "SCALAR"
    },
    {
      "bufferView": 2,
      "byteOffset": 783888,
      "componentType": 5126,
      "count": 81,
      "max": [
        1.008175015449524,
        0.0,
        1.0329638719558716
      ],
      "min": [
        -0.9918249845504761,
        -4.76837158203125e-07,
        -0.9670361876487732
      ],
      "type": "VEC3"
    },
    {
      "bufferView": 2,
      "byteOffset": 784860,
      "componentType": 5126,
      "count": 81,
      "max": [
        0.0,
        1.0,
        -0.0
      ],
      "min": [
        0.0,
        1.0,
        -0.0
      ],
      "type": "VEC3"
    },
    {
      "bufferView": 3,
      "componentType": 5126,
      "count": 81,
      "max": [
        0.36413997411727905,
        0.0,
        0.9313525557518005,
        -1.0
      ],
      "min": [
        0.3641185760498047,
        0.0,
        0.9313442707061768,
        -1.0
      ],
      "type": "VEC4"
    },
    {
      "bufferView": 1,
      "byteOffset": 16128,
      "componentType": 5126,
      "count": 81,
      "max": [
        0.6390057802200317,
        0.5735583305358887
      ],
      "min": [
        0.2977522015571594,
        0.31761813163757324
      ],
      "type": "VEC2"
    },
    {
      "bufferView": 1,
      "byteOffset": 16776,
      "componentType": 5126,
      "count": 81,
      "max": [
        0.6390057802200317,
        0.5735583305358887
      ],
      "min": [
        0.2977522015571594,
        0.31761813163757324
      ],
      "type": "VEC2"
    },
    {
      "bufferView": 1,
      "byteOffset": 17424,
      "componentType": 5126,
      "count": 81,
      "max": [
        0.6390057802200317,
        0.5735583305358887
      ],
      "min": [
        0.2977522015571594,
        0.31761813163757324
      ],
      "type": "VEC2"
    },
    {
      "bufferView": 1,
      "byteOffset": 18072,
      "componentType": 5126,
      "count": 81,
      "max": [
        0.6390057802200317,
        0.5735583305358887
      ],
      "min": [
        0.2977522015571594,
        0.31761813163757324
      ],
      "type": "VEC2"
    },
    {
      "bufferView": 0,
      "byteOffset": 781632,
      "componentType": 5125,
      "count": 384,
      "type": "SCALAR"
    }
  ],
  "asset": {
    "extras": {
      "author": "Tidus (https://sketchfab.com/JuegosChafas)",
      "license": "CC-BY-4.0 (http://creativecommons.org/licenses/by/4.0/)",
      "source": "https://sketchfab.com/3d-models/cute-cup-ddd3d4d1fdf240529774f59fbe6e9a9d",
      "title": "cute_cup"
    },
    "generator": "Sketchfab-15.23.0",
    "version": "2.0"
  },
  "bufferViews": [
    {
      "buffer": 0,
      "byteLength": 783168,
      "name": "floatBufferViews",
      "target": 34963
    },
    {
      "buffer": 0,
      "byteLength": 18720,
      "byteOffset": 783168,
      "byteStride": 8,
      "name": "floatBufferViews",
      "target": 34962
    },
    {
      "buffer": 0,
      "byteLength": 785832,
      "byteOffset": 801888,
      "byteStride": 12,
      "name": "floatBufferViews",
      "target": 34962
    },
    {
      "buffer": 0,
      "byteLength": 1296,
      "byteOffset": 1587720,
      "byteStride": 16,
      "name": "floatBufferViews",
      "target": 34962
    }
  ],
  "buffers": [
    {
      "byteLength": 1589016,
      "uri": "scene.bin"
    }
  ],
  "extensionsUsed": [
    "KHR_materials_specular"
  ],
  "images": [
    {
      "uri": "textures/eyes_baseColor.png"
    },
    {
      "uri": "textures/coffe_baseColor.jpeg"
    },
    {
      "uri": "textures/coffe_metallicRoughness.png"
    }
  ],
  "materials": [
    {
      "doubleSided": true,
      "extensions": {
        "KHR_materials_specular": {
          "specularColorFactor": [
            1.0,
            1.0,
            1.0
          ],
          "specularFactor": 1.0
        }
      },
      "name": "base",
      "pbrMetallicRoughness": {
        "baseColorFactor": [
          0.339463,
          0.339463,
          0.339463,
          1.0
        ],
        "metallicFactor": 0.0,
        "roughnessFactor": 0.4
      }
    },
    {
      "alphaMode": "MASK",
      "doubleSided": true,
      "extensions": {
        "KHR_materials_specular": {
          "specularColorFactor": [
            1.0,
            1.0,
            1.0
          ],
          "specularFactor": 0.0
        }
      },
      "name": "eyes",
      "pbrMetallicRoughness": {
        "baseColorTexture": {
          "index": 0
        },
        "metallicFactor": 0.0,
        "roughnessFactor": 0.4
      }
    },
    {
      "doubleSided": true,
      "extensions": {
        "KHR_materials_specular": {
          "specularColorFactor": [
            1.0,
            1.0,
            1.0
          ],
          "specularFactor": 1.0
        }
      },
      "name": "coffe",
      "normalTexture": {
        "index": 1
      },
      "pbrMetallicRoughness": {
        "baseColorTexture": {
          "index": 1
        },
        "metallicFactor": 0.0,
        "metallicRoughnessTexture": {
          "index": 2
        }
      }
    }
  ],
  "meshes": [
    {
      "name": "Object_0",
      "primitives": [
        {
          "attributes": {
            "NORMAL": 1,
            "POSITION": 0
          },
          "indices": 2,
          "material": 0,
          "mode": 4
        }
      ]
    },
    {
      "name": "Object_1",
      "primitives": [
        {
          "attributes": {
            "NORMAL": 4,
            "POSITION": 3,
            "TEXCOORD_0": 5
          },
          "indices": 6,
          "material": 1,
          "mode": 4
        }
      ]
    },
    {
      "name": "Object_2",
      "primitives": [
        {
          "attributes": {
            "NORMAL": 8,
            "POSITION": 7,
            "TANGENT": 9,
            "TEXCOORD_0": 10,
            "TEXCOORD_1": 11,
            "TEXCOORD_2": 12,
            "TEXCOORD_3": 13
          },
          "indices": 14,
          "material": 2,
          "mode": 4
        }
      ]
    }
  ],
  "nodes": [
    {
      "children": [
        1
      ],
      "matrix": [
        1.0,
        0.0,
        0.0,
        0.0,
        0.0,
        2.220446049250313e-16,
        -1.0,
        0.0,
        0.0,
        1.0,
        2.220446049250313e-16,
        0.0,
        0.0,
        0.0,
        0.0,
        1.0
      ],
      "name": "Sketchfab_model"
    },
    {
      "children": [
        2
      ],
      "name": "root"
    },
    {
      "children": [
        3,
        5,
        7
      ],
      "matrix": [
        1.0,
        0.0,
        0.0,
        0.0,
        0.0,
        2.220446049250313e-16,
        1.0,
        0.0,
        0.0,
        -1.0,
        2.220446049250313e-16,
        0.0,
        0.0,
        0.0,
        0.0,
        1.0
      ],
      "name": "GLTF_SceneRootNode"
    },
    {
      "children": [
        4
      ],
      "matrix": [
        1.0,
        0.0,
        0.0,
        0.0,
        0.0,
        1.0,
        0.0,
        0.0,
        0.0,
        0.0,
        1.0,
        0.0,
        0.12442789971828461,
        1.0804983377456665,
        2.8770422431989573e-05,
        1.0
      ],
      "name": "taza_0"
    },
    {
      "mesh": 0,
      "name": "Object_4"
    },
    {
      "children": [
        6
      ],
      "matrix": [
        1.0,
        0.0,
        0.0,
        0.0,
        0.0,
        1.0,
        0.0,
        0.0,
        0.0,
        0.0,
        1.0,
        0.0,
        0.11710648983716965,
        1.0804983377456665,
        2.8770422431989573e-05,
        1.0
      ],
      "name": "uwu_1"
    },
    {
      "mesh": 1,
      "name": "Object_6"
    },
    {
      "children": [
        8
      ],
      "matrix": [
        1.0635367631912231,
        0.0,
        0.0,
        0.0,
        0.0,
        1.0635367631912231,
        0.0,
        0.0,
        0.0,
        0.0,
        1.0635367631912231,
        0.0,
        -0.008175009861588478,
        2.1085290908813477,
        -0.032963816076517105,
        1.0
      ],
      "name": "coffe_2"
    },
    {
      "mesh": 2,
      "name": "Object_8"
    }
  ],
  "samplers": [
    {
      "magFilter": 9729,
      "minFilter": 9987,
      "wrapS": 10497,
      "wrapT": 10497
    }
  ],
  "scene": 0,
  "scenes": [
    {
      "name": "Sketchfab_Scene",
      "nodes": [
        0
      ]
    }
  ],
  "textures": [
    {
      "sampler": 0,
      "source": 0
    },
    {
      "sampler": 0,
      "source": 1
    },
    {
      "sampler": 0,
      "source": 2
    }
  ]
}
